<?xml version="1.0" encoding="UTF-8" standalone="no"?>
<svg
   xmlns:dc="http://purl.org/dc/elements/1.1/"
   xmlns:cc="http://creativecommons.org/ns#"
   xmlns:rdf="http://www.w3.org/1999/02/22-rdf-syntax-ns#"
   xmlns:svg="http://www.w3.org/2000/svg"
   xmlns="http://www.w3.org/2000/svg"
   id="svg8"
   version="1.1"
   viewBox="0 0 76.287407 25.55685"
   height="25.55685mm"
   width="76.287407mm">
  <defs
     id="defs2" />
  <metadata
     id="metadata5">
    <rdf:RDF>
      <cc:Work
         rdf:about="">
        <dc:format>image/svg+xml</dc:format>
        <dc:type
           rdf:resource="http://purl.org/dc/dcmitype/StillImage" />
        <dc:title></dc:title>
      </cc:Work>
    </rdf:RDF>
  </metadata>
  <g
     transform="translate(-44.937824,-24.647252)"
     id="layer1">
    <g
       transform="matrix(0.34497358,0,0,0.34497358,86.799938,20.244732)"
       id="g4840">
      <rect
         style="fill:#000000;fill-opacity:1;stroke:none;stroke-width:0.76499999;stroke-miterlimit:4;stroke-dasharray:none;stroke-dashoffset:0;stroke-opacity:1"
         id="rect908"
         width="74.083336"
         height="74.083336"
         x="25.702379"
         y="12.761904" />
      <path
         style="fill:#ffffff;fill-opacity:1;stroke:none;stroke-width:0.26458332px;stroke-linecap:butt;stroke-linejoin:miter;stroke-opacity:1"
         d="m 63.919176,39.598211 7.542014,12.945678 -12.945753,14.74107 h 8.150111 l 8.693454,-9.63839 5.764133,9.63839 h 8.409972 L 80.514946,52.543889 91.6356,39.598211 h -7.724889 l -7.276039,8.220979 -4.438493,-8.220979 z"
         id="path868" />
      <path
         style="fill:#c59e9d;fill-opacity:1;stroke:none;stroke-width:0.26458332px;stroke-linecap:butt;stroke-linejoin:miter;stroke-opacity:1"
         d="m 42.495853,16.834717 0.100227,6.280834 h 5.579253 l 0.133633,-3.808591 h -2.071338 l -0.167042,-2.472243 z"
         id="path874" />
      <path
         style="fill:#0f1ca0;fill-opacity:1;stroke:none;stroke-width:0.26458332px;stroke-linecap:butt;stroke-linejoin:miter;stroke-opacity:1"
         d="m 49.579549,12.763091 0.02363,1.345353 1.866257,0.04725 0.266059,2.787574 c 0,0 1.795388,0.212612 1.795388,0.02362 0,-0.188988 -0.04725,-2.740327 -0.04725,-2.740327 l -1.777965,-0.118118 -0.141743,-1.34595 z"
         id="path876" />
      <path
         style="fill:#ee722e;fill-opacity:1;stroke:none;stroke-width:0.26458332px;stroke-linecap:butt;stroke-linejoin:miter;stroke-opacity:1"
         d="m 51.664621,20.959262 0.04725,1.74814 1.795386,0.118118 0.04725,0.992187 1.81901,0.02363 -0.09449,-2.69308 z"
         id="path878" />
      <path
         style="fill:#e3f04e;fill-opacity:1;stroke:none;stroke-width:0.26458332px;stroke-linecap:butt;stroke-linejoin:miter;stroke-opacity:1"
         d="m 81.59561,14.415549 0.03544,4.618397 h 5.622396 l -0.02363,-3.815197 -2.019811,-0.05906 0.02363,-0.815011 z"
         id="path880" />
      <path
         style="fill:#e53122;fill-opacity:1;stroke:none;stroke-width:0.26458332px;stroke-linecap:butt;stroke-linejoin:miter;stroke-opacity:1"
         d="m 95.114543,24.518716 v 1.169304 l 1.720545,0.100226 0.150342,2.204975 1.737251,-0.133636 -0.100226,-2.889852 z"
         id="path882" />
      <path
         style="fill:#5ecb3c;fill-opacity:1;stroke:none;stroke-width:0.26458332px;stroke-linecap:butt;stroke-linejoin:miter;stroke-opacity:1"
         d="m 95.081134,35.677218 0.06682,1.503391 1.436573,0.133636 0.334087,1.770661 1.403165,0.167042 0.601355,1.971114 0.867956,0.133633 -0.0086,-2.00452 -1.059803,-0.400905 -0.167044,-1.536801 -1.536801,-0.06681 -0.267269,-1.837478 z"
         id="path884" />
      <path
         style="fill:#0f1a97;fill-opacity:1;stroke:none;stroke-width:0.26458332px;stroke-linecap:butt;stroke-linejoin:miter;stroke-opacity:1"
         d="m 99.784764,44.361155 -0.943991,0.009 -0.07087,1.889881 1.012175,0.02363 z"
         id="path886" />
      <path
         style="fill:#c59e9d;fill-opacity:1;stroke:none;stroke-width:0.26458332px;stroke-linecap:butt;stroke-linejoin:miter;stroke-opacity:1"
         d="m 96.918612,54.285858 0.03341,3.641548 2.833202,-0.08129 0.0011,-3.423702 z"
         id="path888" />
      <path
         style="fill:#c3e94a;fill-opacity:1;stroke:none;stroke-width:0.26458332px;stroke-linecap:butt;stroke-linejoin:miter;stroke-opacity:1"
         d="m 98.74628,73.805057 v 2.740329 l 1.038696,-0.108969 2.92e-4,-2.102344 z"
         id="path890" />
      <path
         style="fill:#cff84f;fill-opacity:1;stroke:none;stroke-width:0.26458332px;stroke-linecap:butt;stroke-linejoin:miter;stroke-opacity:1"
         d="m 88.068451,83.271167 -0.04607,3.574239 2.208799,-1.45e-4 -0.131109,-1.258986 1.937125,-0.09449 0.04725,-0.850448 -2.220611,-0.897694 z"
         id="path892" />
      <path
         style="fill:#c59e9d;fill-opacity:1;stroke:none;stroke-width:0.26458332px;stroke-linecap:butt;stroke-linejoin:miter;stroke-opacity:1"
         d="m 82.446055,74.183035 0.188989,0.708705 1.41741,0.755952 -0.09449,0.992187 3.307291,0.04725 -0.09449,-2.69308 z"
         id="path894" />
      <path
         style="fill:#f5b740;fill-opacity:1;stroke:none;stroke-width:0.26458332px;stroke-linecap:butt;stroke-linejoin:miter;stroke-opacity:1"
         d="m 43.18378,76.781619 -0.661458,0.661459 -0.04725,5.10268 h 1.653646 l 0.04725,-5.338914 z"
         id="path896" />
      <path
         style="fill:#cb2a1d;fill-opacity:1;stroke:none;stroke-width:0.26458332px;stroke-linecap:butt;stroke-linejoin:miter;stroke-opacity:1"
         d="m 57.216145,60.528644 -2.267857,-0.04725 -1.181174,2.456847 0.236233,2.173361 3.874256,0.18899 z"
         id="path900" />
      <path
         style="fill:#48a5b1;fill-opacity:1;stroke:none;stroke-width:0.26458332px;stroke-linecap:butt;stroke-linejoin:miter;stroke-opacity:1"
         d="m 49.467634,58.21354 -0.141742,2.126117 -0.472469,0.850445 0.850445,1.842635 5.575149,0.09449 0.04725,-4.299479 z"
         id="path898" />
      <path
         style="fill:#92f84d;fill-opacity:1;stroke:none;stroke-width:0.26458332px;stroke-linecap:butt;stroke-linejoin:miter;stroke-opacity:1"
         d="m 28.419083,56.370907 -0.425222,1.748139 -1.535528,0.519719 0.02363,1.252045 1.842633,0.401601 0.590587,-0.826823 0.01946,-2.788801 z"
         id="path902" />
      <path
         style="fill:#d82e20;fill-opacity:1;stroke:none;stroke-width:0.26458332px;stroke-linecap:butt;stroke-linejoin:miter;stroke-opacity:1"
         d="m 40.424515,33.355314 0.01669,5.796407 h 1.553504 l 0.150339,-5.762998 z"
         id="path904" />
      <path
         style="fill:#76228d;fill-opacity:1;stroke:#76228d;stroke-width:0.26458332px;stroke-linecap:butt;stroke-linejoin:miter;stroke-opacity:1"
         d="m 51.583018,33.388723 0.01669,3.925522 -1.954408,-0.05011 0.501129,-3.841999 z"
         id="path906" />
      <path
         style="fill:#ffffff;fill-opacity:1;stroke:none;stroke-width:0.26458332px;stroke-linecap:butt;stroke-linejoin:miter;stroke-opacity:1"
         d="M 31.643693,26.463529 30.61607,33.26711 h 12.614774 l -4.877667,34.017849 h 7.516955 L 50.51394,33.26711 h 12.324598 l 1.080638,-6.803581 H 31.643693 v 0"
         id="path866" />
    </g>
    <path
       d="m 52.205598,43.868162 1.835546,-9.227344 h -5.159375 l 0.620118,-3.100586 h 3.621484 l 0.396875,-2.009179 h -5.729883 l -1.413867,7.14375 h 5.18418 l -1.041797,5.184179 h -5.18418 l -0.396875,2.00918 z"
       style="font-style:italic;font-variant:normal;font-weight:normal;font-stretch:normal;font-size:25.39999962px;line-height:0;font-family:HYShortSamul-Medium;-inkscape-font-specification:'HYShortSamul-Medium Italic';letter-spacing:0px;word-spacing:0px;fill:#ffffff;fill-opacity:1;stroke:none;stroke-width:0.26458332"
       id="path14855" />
    <path
       d="m 62.028253,43.868162 1.984375,-9.971484 H 56.744855 L 53.817902,48.605857 H 55.9263 l 0.942578,-4.737695 z m -1.686719,-2.00918 h -3.075781 l 1.190625,-5.953125 h 3.075781 z"
       style="font-style:italic;font-variant:normal;font-weight:normal;font-stretch:normal;font-size:25.39999962px;line-height:0;font-family:HYShortSamul-Medium;-inkscape-font-specification:'HYShortSamul-Medium Italic';letter-spacing:0px;word-spacing:0px;fill:#ffffff;fill-opacity:1;stroke:none;stroke-width:0.26458332"
       id="path14857" />
    <path
       d="m 71.850909,43.868162 1.984375,-9.971484 h -7.267773 l -0.396875,2.009179 h 5.184179 l -0.322461,1.612305 h -5.184179 l -1.265039,6.35 z m -1.686719,-2.00918 h -3.075781 l 0.471289,-2.356445 h 3.075781 z"
       style="font-style:italic;font-variant:normal;font-weight:normal;font-stretch:normal;font-size:25.39999962px;line-height:0;font-family:HYShortSamul-Medium;-inkscape-font-specification:'HYShortSamul-Medium Italic';letter-spacing:0px;word-spacing:0px;fill:#ffffff;fill-opacity:1;stroke:none;stroke-width:0.26458332"
       id="path14859" />
    <path
       d="m 81.69837,43.868162 0.396875,-2.00918 h -5.184179 l 1.190625,-5.953125 h 3.621484 l 0.396875,-2.009179 h -5.729883 l -1.984375,9.971484 z"
       style="font-style:italic;font-variant:normal;font-weight:normal;font-stretch:normal;font-size:25.39999962px;line-height:0;font-family:HYShortSamul-Medium;-inkscape-font-specification:'HYShortSamul-Medium Italic';letter-spacing:0px;word-spacing:0px;fill:#ffffff;fill-opacity:1;stroke:none;stroke-width:0.26458332"
       id="path14861" />
    <path
       d="m 90.255986,43.868162 0.396875,-2.00918 h -5.159375 l 0.471289,-2.356445 h 5.159375 l 1.116211,-5.605859 h -7.267773 l -1.984375,9.971484 z m -0.818555,-6.35 H 86.36165 l 0.322461,-1.612305 h 3.075781 z"
       style="font-style:italic;font-variant:normal;font-weight:normal;font-stretch:normal;font-size:25.39999962px;line-height:0;font-family:HYShortSamul-Medium;-inkscape-font-specification:'HYShortSamul-Medium Italic';letter-spacing:0px;word-spacing:0px;fill:#ffffff;fill-opacity:1;stroke:none;stroke-width:0.26458332"
       id="path14863" />
  </g>
</svg>
